<svg width="24" height="24" viewBox="0 0 24 24" fill="none" xmlns="http://www.w3.org/2000/svg">
<path class="background_layer" d="M0 3C0 1.34315 1.34315 0 3 0H21C22.6569 0 24 1.34315 24 3V21C24 22.6567 22.6571 23.9998 21.0004 24L16.5656 24.0003V14.7296H19.6754L20.1741 10.9451H16.5656V8.31443C16.5656 7.57994 17.1611 6.98448 17.8956 6.98448H20.2329V3.58131H16.9664C14.6549 3.58131 12.7811 5.45515 12.7811 7.76668V10.945H9.65659V14.7296H12.7811V24.0003L3 24C1.34315 24 0 22.6569 0 21V3Z" fill="#BEBED2"/>
</svg>
