<svg width="24" height="24" viewBox="0 0 24 24" fill="none" xmlns="http://www.w3.org/2000/svg">
<path class="background_layer" d="M21 0H3C1.34315 0 0 1.34315 0 3V21C0 22.6569 1.34315 24 3 24H21C22.6569 24 24 22.6569 24 21V3C24 1.34315 22.6569 0 21 0Z" fill="#BEBED2"/>
<path d="M6.94787 8.19066C7.45038 9.34275 8.08724 10.429 8.92604 11.4041C9.03729 11.5339 9.17752 11.6492 9.32526 11.7432C9.54104 11.8807 9.74464 11.8324 9.83238 11.6032C9.92518 11.3627 10.0103 10.8754 10.0154 10.6228C10.0292 9.963 10.0133 9.53056 9.97514 8.87152C9.95039 8.44942 9.78876 8.07879 9.11997 7.96692C8.91343 7.93224 8.89425 7.77441 9.02694 7.61697C9.30318 7.28918 9.688 7.23694 10.1053 7.21626C10.7816 7.18235 11.4605 7.21003 12.1376 7.21626C12.4135 7.21861 12.6909 7.23924 12.9626 7.29422C13.3169 7.36593 13.5066 7.59668 13.565 7.9178C13.5952 8.08345 13.6108 8.25375 13.6066 8.42136C13.5889 9.14161 13.5516 9.86147 13.5428 10.5813C13.539 10.8639 13.5612 11.1535 13.6263 11.4286C13.7174 11.8121 13.9987 11.9084 14.2863 11.6313C14.6515 11.2794 14.9735 10.8834 15.2757 10.4812C15.8249 9.74964 16.235 8.94679 16.5881 8.11899C16.7707 7.69184 16.9105 7.59907 17.4054 7.59792C18.3357 7.59595 19.266 7.59518 20.1963 7.59792C20.3613 7.59868 20.5339 7.61312 20.6896 7.65912C20.9423 7.73396 21.0427 7.92532 20.9835 8.16815C20.8454 8.73719 20.5141 9.22084 20.1594 9.68583C19.5901 10.4318 18.9936 11.1598 18.4109 11.8972C18.3366 11.9912 18.2711 12.0913 18.2102 12.193C17.9923 12.5586 18.0075 12.7636 18.3252 13.068C18.8311 13.5524 19.3727 14.0057 19.8626 14.5034C20.2186 14.8655 20.5481 15.2583 20.8303 15.6718C21.1871 16.1949 20.9667 16.6875 20.3 16.7752C19.8807 16.8302 17.8321 16.7756 17.7262 16.7752C17.1754 16.7729 16.6926 16.5955 16.3039 16.2483C15.8715 15.8617 15.4785 15.4376 15.0633 15.0342C14.9382 14.9126 14.8047 14.7961 14.6607 14.6943C14.3211 14.4538 13.9878 14.5072 13.8291 14.8775C13.6935 15.1956 13.5763 16.0308 13.5709 16.1021C13.5423 16.4751 13.2867 16.7128 12.8366 16.7358C11.5373 16.8013 10.2783 16.6668 9.10534 16.0834C8.11121 15.5892 7.31737 14.8904 6.62971 14.0754C5.53736 12.781 4.67455 11.3582 3.88682 9.89355C3.84656 9.81867 3.04871 8.24251 3.02727 8.16806C2.95601 7.91878 3.02249 7.68065 3.24936 7.59868C3.39079 7.5476 6.02133 7.59851 6.06509 7.60069C6.48483 7.62179 6.77105 7.7862 6.94787 8.19066Z" fill="white"/>
</svg>
