<svg width="24" height="24" viewBox="0 0 24 24" fill="none" xmlns="http://www.w3.org/2000/svg">
<path class="background_layer" d="M21 0H3C1.34315 0 0 1.34315 0 3V21C0 22.6569 1.34315 24 3 24H21C22.6569 24 24 22.6569 24 21V3C24 1.34315 22.6569 0 21 0Z" fill="#BEBED2"/>
<g clip-path="url(#clip0)">
<path d="M7.63356 12.5284C7.26576 13.2514 7.68336 13.597 8.63616 14.1874C9.44616 14.6878 10.5652 14.8708 11.284 14.944C10.9894 15.2272 12.3394 13.9288 8.45136 17.6685C7.62696 18.4587 8.95416 19.7265 9.77796 18.9531L12.0082 16.8022C12.862 17.6235 13.6804 18.4107 14.2384 18.9561C15.0628 19.7325 16.3894 18.4755 15.574 17.6715C15.5128 17.6133 12.5518 14.773 12.7324 14.947C13.4602 14.8738 14.5624 14.68 15.3628 14.1904L15.3622 14.1898C16.315 13.5964 16.7326 13.2514 16.3702 12.5284C16.1512 12.118 15.5608 11.7748 14.7748 12.3682C14.7748 12.3682 13.7134 13.1812 12.0016 13.1812C10.2892 13.1812 9.22836 12.3682 9.22836 12.3682C8.44296 11.7718 7.85016 12.118 7.63356 12.5284Z" fill="white"/>
<path d="M12.0004 12.0855C14.0872 12.0855 15.7912 10.4547 15.7912 8.44709C15.7912 6.43109 14.0872 4.80029 12.0004 4.80029C9.91298 4.80029 8.20898 6.43109 8.20898 8.44709C8.20898 10.4547 9.91298 12.0855 12.0004 12.0855ZM12.0004 6.64769C13.0258 6.64769 13.8622 7.45229 13.8622 8.44709C13.8622 9.43349 13.0258 10.2381 12.0004 10.2381C10.975 10.2381 10.1386 9.43349 10.1386 8.44709C10.138 7.45169 10.9744 6.64769 12.0004 6.64769Z" fill="white"/>
</g>
<defs>
<clipPath id="clip0">
<rect x="4.80078" y="4.80029" width="14.4" height="14.4" fill="white"/>
</clipPath>
</defs>
</svg>
