<svg width="24" height="24" xmlns="http://www.w3.org/2000/svg">

 <g>
  <title>background</title>
  <rect fill="none" id="canvas_background" height="402" width="582" y="-1" x="-1"/>
 </g>
 <g>
  <title>Layer 1</title>
  <path fill="#d3d3d3" id="photo" d="m19,7l-0.4,0c-0.4,0 -0.7,-0.2 -0.9,-0.6l-1.2,-2.3c-0.3,-0.7 -1,-1.1 -1.8,-1.1l-5.5,0c-0.7,0 -1.4,0.4 -1.8,1.1l-1.1,2.3c-0.2,0.4 -0.5,0.6 -0.9,0.6l-0.4,0c-2.2,0 -4,1.8 -4,4l0,6c0,2.2 1.8,4 4,4l14,0c2.2,0 4,-1.8 4,-4l0,-6c0,-2.2 -1.8,-4 -4,-4zm-7,10c-2.2,0 -4,-1.8 -4,-4c0,-2.2 1.8,-4 4,-4s4,1.8 4,4c0,2.2 -1.8,4 -4,4z"/>
 </g>
</svg>