<svg width="16" height="16" viewBox="0 0 16 16" xmlns="http://www.w3.org/2000/svg">
<path fill-rule="evenodd" clip-rule="evenodd" d="M12.6663 6.66667C12.6663 3.96055 11.1741 2.08233 9.24326 1.51847C9.17334 1.33758 9.06285 1.1694 8.91266 1.02829C8.39949 0.546132 7.59985 0.546132 7.08668 1.02829C6.93682 1.16909 6.82648 1.33684 6.75654 1.51729C4.82324 2.07869 3.33301 3.9528 3.33301 6.66667C3.33301 8.4226 2.979 9.40652 2.32365 10.1196C2.21408 10.2388 1.91724 10.5118 1.71615 10.6968L1.71613 10.6968L1.71612 10.6968L1.7161 10.6969C1.62097 10.7844 1.54727 10.8522 1.52498 10.8746L1.33301 11.0693V13.3427H5.39166C5.5289 14.0508 5.91307 14.5244 6.60781 14.9484C7.46244 15.4699 8.53691 15.4699 9.39154 14.9484C10.0047 14.5743 10.4158 13.9992 10.5826 13.3427H14.6663V11.0693L14.4744 10.8746C14.4542 10.8541 14.3835 10.789 14.2911 10.7037L14.291 10.7037C14.0905 10.5187 13.7878 10.2395 13.6766 10.118C13.0208 9.4016 12.6663 8.41643 12.6663 6.66667ZM9.15749 13.3427H6.78542C6.87961 13.5179 7.04015 13.6502 7.30235 13.8103C7.73052 14.0715 8.26883 14.0715 8.697 13.8103C8.89527 13.6893 9.0502 13.5292 9.15749 13.3427ZM12.6931 11.0183C12.8334 11.1715 13.1341 11.4516 13.333 11.6346V12.0094H2.66634V11.6349C2.86372 11.4541 3.1653 11.1742 3.30533 11.0218C4.19582 10.0529 4.66634 8.7452 4.66634 6.66667C4.66634 4.1466 6.22152 2.67492 7.99967 2.67492C9.77281 2.67492 11.333 4.1542 11.333 6.66667C11.333 8.73853 11.8037 10.0467 12.6931 11.0183Z" fill="#BEBED2"/>
</svg>
