<svg width="14" height="11" viewBox="0 0 14 11" fill="none" xmlns="http://www.w3.org/2000/svg">
<path d="M13.0982 1.4569C13.1528 1.07409 13.1255 0.827997 12.9614 0.663934C12.7974 0.499872 12.5786 0.472528 12.3052 0.55456L1.44969 4.73815C1.06688 4.90221 0.875473 5.06628 0.875473 5.23034C0.848129 5.42175 0.984848 5.55846 1.31297 5.64049L4.10203 6.51549L10.5552 2.44128C10.6372 2.38659 10.7193 2.35925 10.8013 2.35925C10.8833 2.35925 10.938 2.35925 10.9653 2.41393C10.9927 2.46862 10.9653 2.49596 10.9107 2.55065L5.68797 7.28112L5.46922 10.1522C5.60594 10.1522 5.71531 10.1249 5.82469 10.0702C5.87938 10.0429 5.93406 9.98815 6.04344 9.87878L7.41063 8.56628L10.2271 10.6444C10.4732 10.8085 10.6919 10.8358 10.856 10.7538C11.02 10.6718 11.1567 10.4804 11.2388 10.1522L13.0982 1.4569Z" fill="#646473"/>
</svg>
